<mxfile host="65bd71144e">
    <diagram id="D2gX13k8lLRSHt8L3M18" name="PÃ¡gina-1">
        <mxGraphModel dx="888" dy="459" grid="1" gridSize="10" guides="1" tooltips="1" connect="1" arrows="1" fold="1" page="1" pageScale="1" pageWidth="827" pageHeight="1169" math="0" shadow="0">
            <root>
                <mxCell id="0"/>
                <mxCell id="1" parent="0"/>
                <mxCell id="13" value="" style="shape=flexArrow;endArrow=classic;html=1;" parent="1" edge="1">
                    <mxGeometry width="50" height="50" relative="1" as="geometry">
                        <mxPoint x="620" y="280" as="sourcePoint"/>
                        <mxPoint x="770" y="280" as="targetPoint"/>
                        <Array as="points">
                            <mxPoint x="660" y="280"/>
                        </Array>
                    </mxGeometry>
                </mxCell>
                <mxCell id="21" value="Salida&lt;br&gt;" style="edgeLabel;html=1;align=center;verticalAlign=middle;resizable=0;points=[];" parent="13" vertex="1" connectable="0">
                    <mxGeometry x="-0.2533" y="-8" relative="1" as="geometry">
                        <mxPoint as="offset"/>
                    </mxGeometry>
                </mxCell>
                <mxCell id="19" value="Sistema principal" style="swimlane;" parent="1" vertex="1">
                    <mxGeometry x="149" y="50" width="530" height="430" as="geometry"/>
                </mxCell>
                <mxCell id="7" value="Archivo &lt;br&gt;programa principal" style="whiteSpace=wrap;html=1;aspect=fixed;" parent="19" vertex="1">
                    <mxGeometry x="159" y="200" width="190" height="190" as="geometry"/>
                </mxCell>
                <mxCell id="12" value="" style="shape=flexArrow;endArrow=classic;html=1;entryX=0;entryY=0.462;entryDx=0;entryDy=0;entryPerimeter=0;" parent="19" edge="1">
                    <mxGeometry width="50" height="50" relative="1" as="geometry">
                        <mxPoint x="-70" y="205" as="sourcePoint"/>
                        <mxPoint x="100" y="204.68000000000006" as="targetPoint"/>
                    </mxGeometry>
                </mxCell>
                <mxCell id="20" value="Entrada" style="edgeLabel;html=1;align=center;verticalAlign=middle;resizable=0;points=[];" parent="12" vertex="1" connectable="0">
                    <mxGeometry x="-0.2941" y="1" relative="1" as="geometry">
                        <mxPoint as="offset"/>
                    </mxGeometry>
                </mxCell>
                <mxCell id="9" style="edgeStyle=none;html=1;entryX=0.5;entryY=1;entryDx=0;entryDy=0;" parent="19" source="7" target="3" edge="1">
                    <mxGeometry relative="1" as="geometry"/>
                </mxCell>
                <mxCell id="15" style="edgeStyle=none;html=1;startArrow=none;" parent="19" target="7" edge="1" source="3">
                    <mxGeometry relative="1" as="geometry">
                        <mxPoint x="110" y="110" as="sourcePoint"/>
                    </mxGeometry>
                </mxCell>
                <mxCell id="5" value="funcion 3" style="whiteSpace=wrap;html=1;aspect=fixed;" parent="19" vertex="1">
                    <mxGeometry x="340" y="50" width="80" height="80" as="geometry"/>
                </mxCell>
                <mxCell id="11" style="edgeStyle=none;html=1;exitX=0.75;exitY=0;exitDx=0;exitDy=0;entryX=0.25;entryY=1;entryDx=0;entryDy=0;" parent="19" source="7" target="5" edge="1">
                    <mxGeometry relative="1" as="geometry"/>
                </mxCell>
                <mxCell id="18" style="edgeStyle=none;html=1;entryX=0.916;entryY=-0.021;entryDx=0;entryDy=0;entryPerimeter=0;" parent="19" source="5" target="7" edge="1">
                    <mxGeometry relative="1" as="geometry"/>
                </mxCell>
                <mxCell id="4" value="funcion2" style="whiteSpace=wrap;html=1;aspect=fixed;" parent="19" vertex="1">
                    <mxGeometry x="214" y="60" width="80" height="80" as="geometry"/>
                </mxCell>
                <mxCell id="17" style="edgeStyle=none;html=1;exitX=0.5;exitY=1;exitDx=0;exitDy=0;" parent="19" source="4" target="7" edge="1">
                    <mxGeometry relative="1" as="geometry"/>
                </mxCell>
                <mxCell id="10" style="edgeStyle=none;html=1;exitX=0.453;exitY=-0.011;exitDx=0;exitDy=0;exitPerimeter=0;" parent="19" source="7" target="4" edge="1">
                    <mxGeometry relative="1" as="geometry"/>
                </mxCell>
                <mxCell id="3" value="Funcion 1" style="whiteSpace=wrap;html=1;aspect=fixed;" parent="19" vertex="1">
                    <mxGeometry x="79" y="60" width="80" height="80" as="geometry"/>
                </mxCell>
                <mxCell id="22" value="" style="edgeStyle=none;html=1;endArrow=none;" edge="1" parent="19" target="3">
                    <mxGeometry relative="1" as="geometry">
                        <mxPoint x="270" y="180" as="sourcePoint"/>
                        <mxPoint x="340.05405405405395" y="270" as="targetPoint"/>
                    </mxGeometry>
                </mxCell>
                <mxCell id="31" value="Archivo Funciones" style="swimlane;" vertex="1" parent="19">
                    <mxGeometry x="49" y="30" width="410" height="150" as="geometry"/>
                </mxCell>
            </root>
        </mxGraphModel>
    </diagram>
</mxfile>